<svg id="Layer_1" data-name="Layer 1" xmlns="http://www.w3.org/2000/svg" width="6.2in" height="3in" viewBox="0 0 448.2 215.4"><defs><style>.cls-1{fill:#ed6a5a;opacity:0.5;}.cls-2{fill:none;stroke:#80a1d4;stroke-miterlimit:10;}.cls-3{font-size:12px;fill:#80a1d4;font-family:CourierNewPS-BoldMT, Courier New;font-weight:700;}</style></defs><title>appcache-differences</title><rect class="cls-1" x="135" y="100.8" width="111.9" height="24"/><rect class="cls-1" x="135" y="63.8" width="230.9" height="24"/><line class="cls-2" x1="135" y1="63.8" x2="135" y2="87.8"/><line class="cls-2" x1="135" y1="100.8" x2="135" y2="124.8"/><line class="cls-2" x1="154.5" y1="100.8" x2="154.5" y2="124.8"/><line class="cls-2" x1="155" y1="100.8" x2="155" y2="124.8"/><line class="cls-2" x1="246.9" y1="100.8" x2="246.9" y2="124.8"/><line class="cls-2" x1="154.8" y1="63.8" x2="154.8" y2="87.8"/><line class="cls-2" x1="158" y1="63.8" x2="158" y2="87.8"/><line class="cls-2" x1="269.8" y1="63.8" x2="269.8" y2="87.8"/><line class="cls-2" x1="270" y1="63.8" x2="270" y2="87.8"/><line class="cls-2" x1="320.7" y1="63.8" x2="320.7" y2="87.8"/><line class="cls-2" x1="365.9" y1="63.8" x2="365.9" y2="87.8"/><line class="cls-2" x1="135" y1="63.8" x2="108.8" y2="37.5"/><line class="cls-2" x1="135" y1="124.8" x2="108.8" y2="194.2"/><text class="cls-3" transform="translate(76.4 206.8)">startTime</text><text class="cls-3" transform="translate(119.4 191.3)">fetchStart</text><text class="cls-3" transform="translate(135.9 176.4)">connectStart</text><text class="cls-3" transform="translate(148.5 162.9)">connectEnd</text><text class="cls-3" transform="translate(157.8 145.9)">requestStart</text><text class="cls-3" transform="translate(268.8 139.2)">responseEnd</text><text class="cls-3" transform="translate(261.7 160.2)">responseStart</text><text class="cls-3" transform="translate(76.4 32.5)">startTime</text><text class="cls-3" transform="translate(110.1 9.6)">fetchStart</text><text class="cls-3" transform="translate(169 32.5)">connectStart</text><text class="cls-3" transform="translate(260.8 12.5)">connectEnd</text><text class="cls-3" transform="translate(275.3 24.1)">requestStart</text><text class="cls-3" transform="translate(322.9 35)">responseStart</text><text class="cls-3" transform="translate(368.8 48.2)">responseEnd</text><line class="cls-2" x1="154.8" y1="63.8" x2="146.1" y2="14.6"/><line class="cls-2" x1="158" y1="63.8" x2="170.4" y2="37.5"/><line class="cls-2" x1="262.3" y1="17.9" x2="269.8" y2="63.8"/><line class="cls-2" x1="154.5" y1="124.8" x2="120.9" y2="182.7"/><line class="cls-2" x1="155" y1="124.8" x2="137.7" y2="167"/><line class="cls-2" x1="155" y1="124.8" x2="148.5" y2="154.2"/><line class="cls-2" x1="246.9" y1="124.8" x2="258.1" y2="160.2"/><path class="cls-2" d="M246.9,124.8"/><line class="cls-2" x1="265.2" y1="139.2" x2="246.9" y2="124.8"/><line class="cls-2" x1="155" y1="124.9" x2="156.3" y2="145.9"/><line class="cls-2" x1="270" y1="63.8" x2="273.8" y2="24.1"/><line class="cls-2" x1="320.7" y1="63.8" x2="321.4" y2="35"/><line class="cls-2" x1="365.9" y1="63.8" x2="367.4" y2="48.2"/><text class="cls-3" transform="translate(0 79.9)">Uncached resource:</text><text class="cls-3" transform="translate(14.4 116.9)">Cached resource:</text></svg>