<svg data-name="AppDynamics Logo" xmlns="http://www.w3.org/2000/svg" width="994.5" height="118.5"><path d="M436 29.7h-22.5v59.5H436c20.8 0 30.2-15.2 29.9-30.3s-9.6-29.2-29.9-29.2zm0 50.3h-13.1V38.8H436c14 0 20.2 10 20.4 20S450.6 80 436 80zM289.3 29.6h-27.6v59.6h3.9a5.7 5.7 0 0 0 5.6-5.7V70.9h18.1c28.4-.2 28.4-41.3 0-41.3zm0 32.6h-18.1V38.4h18.1c15.6 0 15.7 23.8 0 23.8zm-91-32.5l-26.7 59.5h10.2l5.6-12.5h32.2l5.7 12.5h10.1l-26.7-59.5zM190.9 68l12.6-28.3L216.1 68zm174.2-38.4h-27.5v59.6h3.9a5.7 5.7 0 0 0 5.6-5.7V70.9h18c28.5-.2 28.4-41.3 0-41.3zm0 32.6h-18V38.4h18c15.7 0 15.8 23.8 0 23.8zm532.6-24.5a21.6 21.6 0 0 1 15.4 6.4l6.5-6.5a31 31 0 1 0 0 43.7l-6.5-6.5a21.8 21.8 0 1 1-15.4-37.1zM828 35.4v53.8h3.8a5.8 5.8 0 0 0 5.7-5.7V29.7h-3.8a5.7 5.7 0 0 0-5.7 5.7zm142.6 18.3c-7.8-1.1-14.4-2.7-14.4-8.5s5.8-9 13.7-9c6.2.1 11.9 2.6 14.7 6.7l7.3-4.9c-5-8-13.6-10-22.2-10-10.7 0-23 4.8-23 17.1s11.3 15.7 23.1 17.3c8.3 1.1 15.2 3.3 15.2 9.8s-7.9 9.8-15.1 9.8-14.2-2.5-18.5-9.7l-7.1 4.7c5.4 10.1 14.2 13.5 25.6 13.5s24.5-5 24.6-18.3-11.6-16.8-23.9-18.5zM512.1 56l-16.4-26.3h-11.3v.4l22.9 34.7v24.4h3.9a5.8 5.8 0 0 0 5.7-5.7V64.8l23.6-34.7v-.4H529zm95.8-20.6V72l-33.8-42.3h-7.3v59.5h3.9a5.7 5.7 0 0 0 5.7-5.7V47.2l33.8 42h7.2V29.7h-3.9a5.6 5.6 0 0 0-5.6 5.7zm156.5 22.3l-19.6-27.9h-11.1v59.5h3.9a5.8 5.8 0 0 0 5.7-5.7v-40l19.9 28.2h2.1l20.2-28.2v45.7h3.9a5.7 5.7 0 0 0 5.6-5.7V29.8h-11zm-94-28l-26.7 59.5h10.1l5.6-12.5h32.2l5.7 12.5h10.1l-26.7-59.5zM663 68l12.5-28.3L688.1 68zM31.4 69.3L15.1 32.7a41.9 41.9 0 0 0 26.8 74.1 38.6 38.6 0 0 0 6-.4L31.6 69.8l-.2-.5zM41.9 0a61.5 61.5 0 0 0-15.5 1.9L36 23.4a38.1 38.1 0 0 1 5.9-.5 42 42 0 0 1 26.9 74.2l9.6 21.4A64.9 64.9 0 0 0 41.9 0zm58.5 109.6h1.1v3.6h.7v-3.6h1.1v-.6h-2.9zm6.7-.6l-1.1 2.8-1.1-2.8h-.8v4.2h.8v-2.6l.9 2.2h.4l1-2.2v2.6h.7V109z" fill="#fff"/></svg>