<svg xmlns="http://www.w3.org/2000/svg" viewBox="0 0 228 35.7"><path d="M21.5 23H10.8l-1.2 2.6-.8 2-.5 1H6l.6-1.2L8.3 24l8-16.5 7.2 15.2a436 436 0 0 0 3 5.8h-2.6a43.8 43.8 0 0 0-1.2-3l-1.2-2.6zm-10-1.6H21l-4.7-10.1-4.7 10.1zM143.3 24l2.4 4.6H144l-6.5-8.9-2-1.4-2.1 1.4-6.5 9h-1.7a331.5 331.5 0 0 0 10.3-21.1l7.8 16.4zM28.7 14V8.3h6.2c3.4 0 6 2 6 5.3 0 3.4-2.2 5.7-6.2 5.7h-4.3v3.4a975.4 975.4 0 0 0 .1 5.8h-2v-1.2l.2-4.6V14zm10.4-.4c0-2.6-2.1-3.8-4.2-3.8h-4.5v7.9h4.3c2.3 0 4.4-1.1 4.4-4zm5.6.4V8.3h6.2c3.4 0 6 2 6 5.3 0 3.4-2.2 5.7-6.2 5.7h-4.3v3.4a974 974 0 0 0 .1 5.8h-2l.1-1.2V14zm10.4-.4c0-2.6-2.1-3.8-4.2-3.8h-4.5v7.9h4.3c2.3 0 4.4-1.1 4.4-4zm24.4 4.9c0 6.5-5.4 10-11.4 10h-6V8.3h6c7 0 11.4 4.2 11.4 10.2zm-3.6-.4c0-3.3-2.2-6.5-8.7-6.5h-1.5v13.6h1.5c6.8 0 8.7-3.3 8.7-7zm31.5-4.3a96.3 96.3 0 0 0 0 4.7v7.3a666.7 666.7 0 0 0 .1 2.8h-3.7v-1.2l.1-3.3v-10a184 184 0 0 0 0-5.8h3.5l11.5 14.8a54.6 54.6 0 0 1 0-6.3V9.5l-.1-1.2h3.7a26.7 26.7 0 0 0 0 2.8l-.1 11.7a180 180 0 0 0 0 5.8H119l-11.5-14.8zm53 15.2l-7.2-15.8-1.5 9.6a85.6 85.6 0 0 0-.8 5.8h-3.8l.6-2.5.5-3.3 1.8-10a523.1 523.1 0 0 0 .7-4.5h3.7c0 .3.4 1 .7 1.9l5.4 12.5 5.4-11.5 1.4-2.9h3.7v1l.4 3.5 1.2 10a226.3 226.3 0 0 0 .8 5.8h-3.8v-1.4l-.5-4.4-1-9.3-7.7 15.6zm19.3-14.9a844.8 844.8 0 0 0-.1-5.8h3.7v1.2L183 14v8.7a975.1 975.1 0 0 0 .2 5.8h-3.7V14.1zm-79.1-5.9h-4c-.4 1-6.3 9.5-6.3 9.5S84.4 9.2 84 8.2h-4c0 .2 5.8 9 8.5 13.2v1.3a977 977 0 0 1 0 5.8H92v-7.2l8.5-13zm104.9 19.4c-2 1-3.5 1.6-6.6 1.6-7.4 0-10.8-6-10.8-10.8 0-4.8 3.5-10.7 10.8-10.7 3.3 0 5 .9 6.3 1.5v3.9c-2.4-1.3-3.6-2-6.3-2-3.7 0-7.2 2-7.2 7.3 0 5.6 4 7.4 7.2 7.4 2.8 0 5.2-1.1 6.6-2.1v4zm11.1-10.2c2.7 1.3 5.4 2.9 5.4 6.3 0 2.4-2 5.4-6.7 5.4-2.8 0-5.1-1.2-6-1.7v-3.8c1 .6 3.1 2.2 6 2.2 1.6 0 3.2-.7 3.2-2.1 0-3-4.2-3.8-6.2-5-1.8-1.1-3-2.1-3-5.2 0-2.9 2.5-5.6 6.5-5.6 2.3 0 4.3.4 5.5 1v3.8a8.6 8.6 0 0 0-5.4-1.6c-1.3 0-3.2 1-3.2 2.4 0 2.4 1.7 2.8 4 3.9z" fill="#FFF"/></svg>