<svg id="Layer_1" data-name="Layer 1" xmlns="http://www.w3.org/2000/svg" width="4.9in" height="3.7in" viewBox="0 0 350.7 265.3"><defs><style>.cls-1,.cls-4{fill:#ed6a5a;}.cls-1,.cls-2,.cls-6{stroke:#ed6a5a;}.cls-1,.cls-2,.cls-6,.cls-7,.cls-9{stroke-miterlimit:10;stroke-width:2px;}.cls-2,.cls-6,.cls-7,.cls-9{fill:none;}.cls-2,.cls-3{opacity:0.5;}.cls-4,.cls-5,.cls-8{font-size:20px;font-family:CourierNewPS-BoldMT, Courier New;font-weight:700;}.cls-5{fill:#130303;}.cls-7,.cls-9{stroke:#80a1d4;}.cls-8{fill:#80a1d4;}.cls-9{stroke-dasharray:4.13 4.13;}</style></defs><title>nav-timing-tcp</title><rect class="cls-1" x="76.6" y="95.1" width="65" height="118"/><rect class="cls-2" x="1" y="95.1" width="65" height="118"/><g class="cls-3"><text class="cls-4" transform="translate(15.5 159.3)">DNS</text></g><text class="cls-5" transform="translate(91.1 159.3)">TCP</text><g class="cls-3"><rect class="cls-6" x="152.3" y="95.1" width="103" height="118"/><text class="cls-4" transform="translate(161.7 159.3)">Request</text></g><line class="cls-7" x1="76.6" y1="95.1" x2="76.6" y2="21.9"/><polyline class="cls-7" points="83.1 88.6 76.6 95.1 70.1 88.6"/><text class="cls-8" transform="translate(4.6 15.9)">connectStart</text><line class="cls-7" x1="98.6" y1="95.1" x2="98.6" y2="93.1"/><line class="cls-9" x1="98.6" y1="89" x2="98.6" y2="66.3"/><line class="cls-7" x1="98.6" y1="64.2" x2="98.6" y2="62.2"/><polyline class="cls-7" points="105.1 88.6 98.6 95.1 92.1 88.6"/><text class="cls-8" transform="translate(98.6 56.2)">secureConnectionStart</text><line class="cls-7" x1="141.6" y1="213.1" x2="141.6" y2="235.6"/><polyline class="cls-7" points="135.1 219.6 141.6 213.1 148.1 219.6"/><text class="cls-8" transform="translate(81.6 251.1)">connectEnd</text></svg>