<svg id="Layer_1" data-name="Layer 1" xmlns="http://www.w3.org/2000/svg" width="8.6in" height="4.3in" viewBox="0 0 619.6 308.5"><defs><style>.cls-1,.cls-6,.cls-7{fill:none;}.cls-1,.cls-4,.cls-6{stroke:#ed6a5a;}.cls-1,.cls-4,.cls-6,.cls-7{stroke-miterlimit:10;stroke-width:2px;}.cls-1,.cls-2{opacity:0.5;}.cls-3,.cls-5,.cls-8{font-size:20px;font-family:CourierNewPS-BoldMT, Courier New;font-weight:700;}.cls-3,.cls-4{fill:#ed6a5a;}.cls-5{fill:#130303;}.cls-7{stroke:#80a1d4;}.cls-8{fill:#80a1d4;}</style></defs><title>nav-timing-processing</title><rect class="cls-1" x="74" y="102.3" width="103" height="118"/><g class="cls-2"><text class="cls-3" transform="translate(83.4 166.5)">Request</text></g><rect class="cls-1" x="187.6" y="102.3" width="115" height="118"/><g class="cls-2"><text class="cls-3" transform="translate(197.1 166.5)">Response</text></g><rect class="cls-4" x="313.2" y="102.3" width="131" height="118"/><text class="cls-5" transform="translate(318.7 166.5)">Processing</text><g class="cls-2"><rect class="cls-6" x="454.8" y="102.3" width="65" height="118"/><text class="cls-3" transform="translate(463.3 166.5)">Load</text></g><line class="cls-7" x1="313.2" y1="102.3" x2="313.2" y2="21.9"/><polyline class="cls-7" points="319.7 95.8 313.2 102.3 306.7 95.8"/><text class="cls-8" transform="translate(229.2 15.9)">domInteractive</text><line class="cls-7" x1="444.2" y1="102.3" x2="444.2" y2="65.1"/><polyline class="cls-7" points="450.7 95.8 444.2 102.3 437.7 95.8"/><text class="cls-8" transform="translate(378.2 59.1)">domComplete</text><line class="cls-7" x1="335.2" y1="220.3" x2="315.7" y2="239.8"/><polyline class="cls-7" points="326 220.3 335.2 220.3 335.2 229.5"/><text class="cls-8" transform="translate(0 250.6)">domContentLoadedEventStart</text><line class="cls-7" x1="423.2" y1="220.3" x2="475.3" y2="276.1"/><polyline class="cls-7" points="423.2 229.5 423.2 220.3 432.4 220.3"/><text class="cls-8" transform="translate(331.3 294.3)">domContentLoadedEventEnd</text></svg>