<svg id="Layer_1" xmlns="http://www.w3.org/2000/svg" viewBox="0 0 618.9 302.1"><style>.st0{fill:none;stroke:#ed6a5a;stroke-width:2;stroke-miterlimit:10;enable-background:new}.st0,.st1{opacity:.5}.st2{fill:#ed6a5a}.st3{font-family:&apos;Courier-Bold&apos;}.st4{font-size:19.9871px}.st8{fill:none;stroke:#80a1d4;stroke-width:2;stroke-miterlimit:10}.st9{fill:#80a1d4}</style><path class="st0" d="M74 102.1h102.9V220H74z"/><g class="st1"><text transform="translate(83.3 166.3)" class="st2 st3 st4">Request</text></g><path class="st0" d="M187.5 102.1h114.9V220H187.5z"/><g class="st1"><text transform="translate(197 166.3)" class="st2 st3 st4">Response</text></g><path fill="#ed6a5a" stroke="#ed6a5a" stroke-width="2" stroke-miterlimit="10" d="M313 102.1h130.9V220H313z"/><text transform="translate(318.5 166.3)" class="st3 st4" fill="#130303">Processing</text><g class="st1"><path fill="none" stroke="#ed6a5a" stroke-width="2" stroke-miterlimit="10" d="M454.5 102.1h65V220h-65z"/><text transform="translate(463 166.3)" class="st2 st3 st4">Load</text></g><path class="st8" d="M313 102.1V21.8m6.5 73.8l-6.5 6.5-6.5-6.5"/><text transform="translate(229 15.8)" class="st9 st3 st4">domInteractive</text><path class="st8" d="M443.9 102.1V64.9m6.5 30.7l-6.5 6.5-6.5-6.5"/><text transform="translate(378 59)" class="st9 st3 st4">domComplete</text><path class="st8" d="M335 220l-19.5 19.5m10.3-19.5h9.2v9.2"/><text transform="translate(0 250.3)" class="st9 st3 st4">domContentLoadedEventStart</text><path class="st8" d="M422.9 220l52.1 55.8m-52.1-46.6V220h9.2"/><text transform="translate(331 294)" class="st9 st3 st4">domContentLoadedEventEnd</text></svg>