<svg id="Layer_1" data-name="Layer 1" xmlns="http://www.w3.org/2000/svg" width="6.2in" height="3.8in" viewBox="0 0 447.9 272.5"><defs><style>.cls-1,.cls-6,.cls-7{fill:none;}.cls-1,.cls-4,.cls-6{stroke:#ed6a5a;}.cls-1,.cls-4,.cls-6,.cls-7{stroke-miterlimit:10;stroke-width:2px;}.cls-1,.cls-2{opacity:0.5;}.cls-3,.cls-5,.cls-8{font-size:20px;font-family:CourierNewPS-BoldMT, Courier New;font-weight:700;}.cls-3,.cls-4{fill:#ed6a5a;}.cls-5{fill:#130303;}.cls-7{stroke:#80a1d4;}.cls-8{fill:#80a1d4;}</style></defs><title>nav-timing-request-response</title><rect class="cls-1" x="1" y="102.3" width="65" height="118"/><g class="cls-2"><text class="cls-3" transform="translate(15.5 166.5)">TCP</text></g><rect class="cls-4" x="76.6" y="102.3" width="103" height="118"/><text class="cls-5" transform="translate(86.1 166.5)">Request</text><rect class="cls-4" x="190.3" y="102.3" width="115" height="118"/><text class="cls-5" transform="translate(199.7 166.5)">Response</text><g class="cls-2"><rect class="cls-6" x="315.9" y="102.3" width="131" height="118"/><text class="cls-3" transform="translate(321.4 166.5)">Processing</text></g><line class="cls-7" x1="76.6" y1="102.3" x2="76.6" y2="21.9"/><polyline class="cls-7" points="83.1 95.8 76.6 102.3 70.1 95.8"/><text class="cls-8" transform="translate(4.6 15.9)">requestStart</text><line class="cls-7" x1="190.3" y1="102.3" x2="190.3" y2="65.1"/><polyline class="cls-7" points="196.8 95.8 190.3 102.3 183.8 95.8"/><text class="cls-8" transform="translate(112.2 59.1)">responseStart</text><line class="cls-7" x1="305.3" y1="220.3" x2="305.3" y2="242.8"/><polyline class="cls-7" points="298.8 226.8 305.3 220.3 311.8 226.8"/><text class="cls-8" transform="translate(239.2 258.3)">responseEnd</text></svg>