<svg id="Layer_1" xmlns="http://www.w3.org/2000/svg" viewBox="0 0 352.1 260.1"><style>.st2{opacity:.5}.st3{fill:#ed6a5a}.st4{font-family:&apos;Courier-Bold&apos;}.st5{font-size:20.0829px}.st8{fill:none;stroke:#80a1d4;stroke-width:2;stroke-miterlimit:10}.st9{fill:#80a1d4}</style><path fill="#ed6a5a" stroke="#ed6a5a" stroke-width="2" stroke-miterlimit="10" d="M76.9 95.4h65.3v118.5H76.9z"/><path opacity=".5" fill="none" stroke="#ed6a5a" stroke-width="2" stroke-miterlimit="10" d="M1 95.4h65.3v118.5H1z"/><g class="st2"><text transform="translate(15.6 159.8)" class="st3 st4 st5">DNS</text></g><text transform="translate(91.5 159.8)" class="st4 st5" fill="#130303">TCP</text><g class="st2"><path fill="none" stroke="#ed6a5a" stroke-width="2" stroke-miterlimit="10" d="M152.9 95.4h103.4v118.5H152.9z"/><text transform="translate(162.4 159.8)" class="st3 st4 st5">Request</text></g><path class="st8" d="M76.9 95.4V21.9m6.5 67l-6.5 6.5-6.5-6.5"/><text transform="translate(4.6 15.9)" class="st9 st4 st5">connectStart</text><path class="st8" d="M99 95.4v-2"/><path fill="none" stroke="#80a1d4" stroke-width="2" stroke-miterlimit="10" stroke-dasharray="4.13,4.13" d="M99 89.3V66.5"/><path class="st8" d="M99 64.4v-2.1m6.5 26.6L99 95.4l-6.5-6.5"/><text transform="translate(99 56.3)" class="st9 st4 st5">secureConnectionStart</text><path class="st8" d="M142.2 213.9v22.6m-6.5-16.1l6.5-6.5 6.5 6.5"/><text transform="translate(82 252)" class="st9 st4 st5">connectEnd</text></svg>