<svg id="Layer_1" xmlns="http://www.w3.org/2000/svg" viewBox="0 0 948.2 120.2"><style>.st0{fill:none;stroke:#ed6a5a;stroke-width:2;stroke-miterlimit:10}.st1{fill:#ed6a5a}.st2{font-family:&apos;Courier-Bold&apos;}.st3{font-size:20.0051px}</style><path class="st0" d="M1 1.1h95v118H1z"/><text transform="translate(12.5 65.3)" class="st1 st2 st3">Unload</text><path class="st0" d="M106.7 1.1h111v118h-111z"/><text transform="translate(114.1 65.3)" class="st1 st2 st3">Redirect</text><path class="st0" d="M228.3 1.1h111v118h-111z"/><text transform="translate(253.8 65.3)" class="st1 st2 st3">Cache</text><path class="st0" d="M350 1.1h65v118h-65z"/><text transform="translate(364.5 65.3)" class="st1 st2 st3">DNS</text><path class="st0" d="M425.6 1.1h65v118h-65z"/><text transform="translate(440.1 65.3)" class="st1 st2 st3">TCP</text><path class="st0" d="M501.3 1.1h103v118h-103z"/><text transform="translate(510.7 65.3)" class="st1 st2 st3">Request</text><path class="st0" d="M614.9 1.1h115v118h-115z"/><text transform="translate(624.4 65.3)" class="st1 st2 st3">Response</text><path class="st0" d="M740.6 1.1h131v118h-131z"/><text transform="translate(746 65.3)" class="st1 st2 st3">Processing</text><path class="st0" d="M882.2 1.1h65v118h-65z"/><text transform="translate(890.7 65.3)" class="st1 st2 st3">Load</text></svg>