<svg id="Layer_1" xmlns="http://www.w3.org/2000/svg" viewBox="0 0 446.4 265.4"><style>.st1{opacity:.5}.st2{fill:#ed6a5a}.st3{font-family:&apos;Courier-Bold&apos;}.st4{font-size:19.933px}.st5{fill:#ed6a5a;stroke:#ed6a5a;stroke-width:2;stroke-miterlimit:10}.st6{fill:#130303}.st8{fill:none;stroke:#80a1d4;stroke-width:2;stroke-miterlimit:10}.st9{fill:#80a1d4}</style><path opacity=".5" fill="none" stroke="#ed6a5a" stroke-width="2" stroke-miterlimit="10" d="M1 101.8h64.8v117.6H1z"/><g class="st1"><text transform="translate(15.5 165.8)" class="st2 st3 st4">TCP</text></g><path class="st5" d="M76.3 101.8H179v117.6H76.3z"/><text transform="translate(85.8 165.8)" class="st6 st3 st4">Request</text><path class="st5" d="M189.7 101.8h114.6v117.6H189.7z"/><text transform="translate(199 165.8)" class="st6 st3 st4">Response</text><g class="st1"><path fill="none" stroke="#ed6a5a" stroke-width="2" stroke-miterlimit="10" d="M314.8 101.8h130.6v117.6H314.8z"/><text transform="translate(320.3 165.8)" class="st2 st3 st4">Processing</text></g><path class="st8" d="M76.3 101.8V21.7m6.5 73.7l-6.5 6.4-6.4-6.4"/><text transform="translate(4.6 15.7)" class="st9 st3 st4">requestStart</text><path class="st8" d="M189.7 101.8v-37m6.4 30.6l-6.4 6.4-6.5-6.4"/><text transform="translate(111.8 58.8)" class="st9 st3 st4">responseStart</text><path class="st8" d="M304.3 219.5v22.4m-6.5-16l6.5-6.4 6.5 6.4"/><text transform="translate(238.4 257.3)" class="st9 st3 st4">responseEnd</text></svg>